Coordinates
version=1
nRows=17
nColumns=34
inDegrees=yes

Units are S.I. units (second, meters, Newtons, ...)
If the header above contains a line with 'inDegrees', this indicates whether rotational values are in degrees (yes) or radians (no).

endheader
time	pelvis_tilt	pelvis_list	pelvis_rotation	pelvis_tx	pelvis_ty	pelvis_tz	hip_flexion_r	hip_adduction_r	hip_rotation_r	knee_angle_r	ankle_angle_r	subtalar_angle_r	mtp_angle_r	hip_flexion_l	hip_adduction_l	hip_rotation_l	knee_angle_l	ankle_angle_l	subtalar_angle_l	mtp_angle_l	lumbar_extension	lumbar_bending	lumbar_rotation	arm_flex_r	arm_add_r	arm_rot_r	elbow_flex_r	pro_sup_r	arm_flex_l	arm_add_l	arm_rot_l	elbow_flex_l	pro_sup_l
      0.00000000	      1.85560195	     -0.02457628	     -4.21130467	      1.73957377	      0.88068604	     -0.17049693	     -0.31122146	     -3.92469834	     -1.10995704	      6.22263277	      4.93098460	    -14.15119728	      0.00000000	     -1.94161092	     -3.97882934	     -5.49104837	      4.90349313	      6.59538265	     -5.25407450	      0.00000000	    -11.19534416	      1.24251863	     -4.86039606	     11.41799050	     -1.92263936	     38.46650356	     98.90035495	     96.61007809	      4.14735603	     -9.53089700	      4.63091217	    100.14566472	    104.06841131
      0.01666670	      0.29784810	      0.17658086	     -3.88114095	      1.74166637	      0.87941013	     -0.17181688	      1.44770282	     -3.75500072	      0.35950071	      6.53312164	      8.27998592	    -13.27993504	      0.00000000	      0.79055964	     -3.63879238	     -5.02966197	      5.86098157	      7.49676917	     -3.77038478	      0.00000000	     -8.19788097	      1.83567685	     -4.90291080	      9.68231291	     -1.40408047	     36.13095754	     98.24106417	     96.76874652	      3.23537463	     -9.65025265	      3.70638991	     97.77969100	     98.54247974
      0.03333330	      0.07972683	      0.98640021	     -4.16700570	      1.74185702	      0.87879098	     -0.17159137	      1.34545191	     -4.69214840	      0.23365316	      5.74866070	      8.08993534	    -13.59016878	      0.00000000	      0.87483529	     -2.94513336	     -5.09359676	      5.37253196	      6.84143514	     -3.52685184	      0.00000000	     -7.88863360	      0.96772105	     -4.60187475	      9.20483736	     -1.43866387	     35.80912966	     98.31782077	     96.78614238	      3.15013083	     -9.67100370	      3.05980930	     97.21607092	     98.01880766
      0.05000000	      0.62842112	      1.47710442	     -4.15696912	      1.74164619	      0.88017349	     -0.17238264	      0.47775888	     -5.39747352	      0.46540106	      5.28111078	      7.99229687	    -14.13850515	      0.00000000	     -0.11927076	     -2.34109505	     -4.54134789	      4.71754351	      6.38861522	     -3.97260906	      0.00000000	     -8.42749850	      0.44217192	     -4.34946607	      9.07726157	     -1.41723158	     35.59407524	     97.83646809	     96.77490881	      3.69158900	     -9.57308346	      2.90504755	     95.99358243	     97.41403491
      0.06666670	      0.57355860	      1.65230706	     -4.17635970	      1.74114610	      0.88074790	     -0.17276557	      0.45672844	     -5.55950823	      0.51786387	      4.99568508	      8.04687208	    -14.21116817	      0.00000000	     -0.11668557	     -2.19893418	     -4.44104759	      4.53666614	      6.42316591	     -4.02926881	      0.00000000	     -8.59417024	      0.38540534	     -4.34574738	      9.01546962	     -1.33230239	     35.67780195	     97.84809946	     96.77377358	      3.66648776	     -9.46912751	      3.02930757	     95.93858233	     97.38441596
      0.08333330	      1.51324639	      1.86773190	     -4.02652648	      1.74118072	      0.88260856	     -0.17321299	     -0.97651800	     -5.82095350	      1.08619807	      4.26451575	      7.33143006	    -15.42821337	      0.00000000	     -1.53695710	     -1.81083384	     -3.31248652	      3.69668310	      5.46656571	     -5.42371022	      0.00000000	     -9.55352309	      0.07445278	     -4.13400220	      9.29377627	     -1.21011007	     36.14324692	     98.27412591	     96.62694576	      4.36873089	     -9.84341857	      5.05575713	     95.86390029	     96.91374561
      0.10000000	      1.61543076	      1.94151050	     -3.91954195	      1.74161489	      0.88336149	     -0.17335324	     -1.29019702	     -5.88958031	      1.45454824	      3.90738757	      7.17629269	    -15.92871207	      0.00000000	     -1.79633524	     -1.70324510	     -2.74938924	      3.39519818	      5.21002879	     -5.84184801	      0.00000000	     -9.57600255	     -0.00090823	     -4.03455029	      9.12022959	     -1.07647201	     36.25884086	     98.67744297	     96.49174161	      4.39506161	     -9.84378759	      6.25858640	     96.18372765	     96.65169812
      0.11666670	      1.87572383	      1.93565945	     -3.83253697	      1.74152047	      0.88447035	     -0.17340372	     -1.71019859	     -5.87353346	      1.71342702	      3.60552940	      6.64620490	    -16.48564782	      0.00000000	     -2.16021145	     -1.67962796	     -2.38615893	      3.15956309	      4.53819656	     -6.45748793	      0.00000000	     -9.99746034	      0.01182005	     -4.00489662	      9.38121118	     -0.91848905	     36.35658938	     98.93452216	     96.29870886	      4.62292315	    -10.11854716	      7.81787944	     96.35942683	     96.35881149
      0.13333330	      1.89560372	      1.98567317	     -3.77859331	      1.74161420	      0.88520910	     -0.17370682	     -1.77279992	     -5.92737238	      1.85602969	      3.51456095	      6.62936329	    -16.50671033	      0.00000000	     -2.18486699	     -1.61489643	     -2.26498489	      3.12792515	      4.45457362	     -6.45239037	      0.00000000	    -10.02503744	     -0.01600778	     -4.07277235	      9.46747288	     -0.84837257	     36.36106208	     98.99013844	     96.27634048	      4.47860798	     -9.81031225	      8.13994693	     96.35898103	     96.33375139
      0.15000000	      2.30190250	      1.98517426	     -3.69266797	      1.74164493	      0.88608190	     -0.17419078	     -2.47436400	     -5.93322843	      2.17959361	      3.02086630	      5.91312224	    -17.37726881	      0.00000000	     -2.79132397	     -1.55931740	     -1.67891839	      2.77974531	      3.65976894	     -7.32541390	      0.00000000	    -10.56459618	     -0.09505435	     -3.91676111	      9.65733696	     -1.03794189	     36.54950155	     99.28231694	     95.92954691	      4.93442618	    -10.28767709	     10.14784115	     96.41908523	     95.83288679
      0.16666670	      2.27346969	      2.00865637	     -3.68683337	      1.74170583	      0.88611593	     -0.17491378	     -2.47945345	     -5.97422378	      2.25216100	      2.91259408	      5.90508730	    -17.38323519	      0.00000000	     -2.79270796	     -1.50115054	     -1.66117988	      2.72728109	      3.55075842	     -7.29291436	      0.00000000	    -10.59985718	     -0.02684669	     -4.04954785	      9.66228521	     -1.15784172	     36.49603821	     99.30172507	     95.91073455	      4.88286000	    -10.17369092	     10.28738619	     96.40376193	     95.81057040
      0.18333330	      2.27001388	      1.99217259	     -3.67842089	      1.74160612	      0.88641831	     -0.17555679	     -2.47770787	     -5.96538190	      2.25608020	      2.90188939	      5.90268734	    -17.38412279	      0.00000000	     -2.79984321	     -1.48082967	     -1.66076688	      2.72427511	      3.54088579	     -7.29079052	      0.00000000	    -10.59784097	     -0.02959179	     -4.05266380	      9.66556686	     -1.16515954	     36.49379585	     99.30455947	     95.90950809	      4.88351895	    -10.17785776	     10.29238837	     96.40309665	     95.80883928
      0.20000000	      2.20268491	      2.01199756	     -3.61320319	      1.74169960	      0.88643596	     -0.17651397	     -2.53455775	     -6.02109729	      2.35111909	      2.65492363	      5.79877925	    -17.38753782	      0.00000000	     -2.82408778	     -1.38985970	     -1.63305198	      2.48394186	      3.30929269	     -7.24539104	      0.00000000	    -10.58612054	      0.06997092	     -4.27024933	      9.72189585	     -1.48938084	     36.41801644	     99.35884682	     95.88207842	      5.07230119	    -10.33537756	     10.36542784	     96.41563691	     95.77103718
      0.21666670	      2.76350112	      1.97554214	     -3.51762103	      1.74227748	      0.88681161	     -0.17735602	     -3.50292909	     -6.03416833	      2.64839292	      2.06451218	      4.73275966	    -18.35017219	      0.00000000	     -3.70510323	     -1.32852388	     -1.06640103	      1.95787612	      2.36561172	     -7.99509033	      0.00000000	    -11.28193421	     -0.00438870	     -4.07970547	      9.91768903	     -1.96093053	     37.00617114	    100.13063391	     95.46325700	      5.71590783	    -10.96889333	     12.06711533	     96.42230386	     95.09007100
      0.23333330	      2.75292834	      1.96134326	     -3.52160944	      1.74298167	      0.88626701	     -0.17783624	     -3.50425541	     -6.03992962	      2.64880365	      2.06304451	      4.73190628	    -18.35240517	      0.00000000	     -3.71444092	     -1.31074730	     -1.06507943	      1.95932887	      2.36237644	     -7.99369090	      0.00000000	    -11.28159758	     -0.00187768	     -4.08588106	      9.91627066	     -1.96473005	     37.00500399	    100.13149880	     95.46190715	      5.71634359	    -10.96050201	     12.07425152	     96.42442990	     95.08807376
      0.25000000	      2.75304375	      2.01867291	     -3.59583543	      1.74348184	      0.88621659	     -0.17824520	     -3.52461236	     -6.17202315	      2.65453377	      2.01111879	      4.69426045	    -18.38091258	      0.00000000	     -3.78556035	     -1.18196641	     -1.02733923	      1.89298135	      2.30861024	     -7.97098585	      0.00000000	    -11.22445223	      0.09186570	     -4.23136099	      9.86437723	     -2.06234520	     37.00931114	    100.15039046	     95.44451506	      5.66536807	    -10.74385845	     12.26479990	     96.47870471	     95.06600510
      0.26666670	      2.70502000	      2.08673114	     -3.48134042	      1.74423129	      0.88647518	     -0.17840280	     -3.67491379	     -6.27913414	      2.63309298	      1.77725348	      4.48539476	    -18.49604368	      0.00000000	     -3.95057982	     -1.06887284	     -0.87075948	      1.53517389	      2.09471495	     -7.91369171	      0.00000000	    -11.10260056	     -0.09924689	     -4.26516382	      9.73856780	     -2.28802888	     37.13132893	    100.25661281	     95.37738908	      5.45068318	    -10.50896298	     12.72592047	     96.59418817	     94.96165216
